<svg width="60" height="23" viewBox="0 0 60 23" fill="none" xmlns="http://www.w3.org/2000/svg">
<rect x="32.2705" y="0.910156" width="27.0656" height="21.8607" fill="#BFD3E4"/>
<path d="M0 0.910156L59.3361 22.7708H0V0.910156Z" fill="#FCCC0A"/>
<path d="M9.36865 0.910156H59.3359V22.7708L47.3646 5.07409L9.36865 0.910156Z" fill="#006BB6"/>
<path d="M0 0.910156H34.3525L35.3934 13.9225L0 9.23802V0.910156Z" fill="#EE212B"/>
<path d="M38.5164 13.402L59.3361 22.7708H0L38.5164 13.402Z" fill="#73A942"/>
<path d="M0 0.910156L29.668 22.7708L0 9.23802V0.910156Z" fill="#73A942"/>
<path d="M51.0083 10.279L59.3362 1.95117V22.7708L34.873 9.23806L51.0083 10.279Z" fill="#FF8888"/>
<path d="M8.21111 15.9922V7.61619H12.1711C12.5631 7.61619 12.9151 7.68419 13.2271 7.82019C13.5391 7.94819 13.8031 8.12819 14.0191 8.36019C14.2431 8.59219 14.4151 8.87619 14.5351 9.21219C14.6551 9.54019 14.7151 9.90019 14.7151 10.2922C14.7151 10.6922 14.6551 11.0562 14.5351 11.3842C14.4151 11.7122 14.2431 11.9922 14.0191 12.2242C13.8031 12.4562 13.5391 12.6402 13.2271 12.7762C12.9151 12.9042 12.5631 12.9682 12.1711 12.9682H10.0351V15.9922H8.21111ZM10.0351 11.3842H11.9551C12.2271 11.3842 12.4391 11.3162 12.5911 11.1802C12.7511 11.0362 12.8311 10.8282 12.8311 10.5562V10.0282C12.8311 9.75619 12.7511 9.55219 12.5911 9.41619C12.4391 9.27219 12.2271 9.20019 11.9551 9.20019H10.0351V11.3842ZM16.8781 9.02019C16.5181 9.02019 16.2541 8.94019 16.0861 8.78019C15.9261 8.61219 15.8461 8.40019 15.8461 8.14419V7.88019C15.8461 7.62419 15.9261 7.41619 16.0861 7.25619C16.2541 7.08819 16.5181 7.00419 16.8781 7.00419C17.2381 7.00419 17.4981 7.08819 17.6581 7.25619C17.8261 7.41619 17.9101 7.62419 17.9101 7.88019V8.14419C17.9101 8.40019 17.8261 8.61219 17.6581 8.78019C17.4981 8.94019 17.2381 9.02019 16.8781 9.02019ZM15.9901 9.69219H17.7661V15.9922H15.9901V9.69219ZM18.8117 15.9922L20.8877 12.7882L18.8357 9.69219H20.8517L22.0277 11.6722H22.0757L23.2157 9.69219H25.0877L22.9997 12.8482L25.0997 15.9922H23.0837L21.8717 13.9402H21.8237L20.6597 15.9922H18.8117ZM30.7945 15.9922C30.4745 15.9922 30.2065 15.8922 29.9905 15.6922C29.7825 15.4922 29.6505 15.2242 29.5945 14.8882H29.5225C29.4265 15.2962 29.2145 15.6082 28.8865 15.8242C28.5585 16.0322 28.1545 16.1362 27.6745 16.1362C27.0425 16.1362 26.5585 15.9682 26.2225 15.6322C25.8865 15.2962 25.7185 14.8522 25.7185 14.3002C25.7185 13.6362 25.9585 13.1442 26.4385 12.8242C26.9265 12.4962 27.5865 12.3322 28.4185 12.3322H29.4145V11.9362C29.4145 11.6322 29.3345 11.3922 29.1745 11.2162C29.0145 11.0322 28.7465 10.9402 28.3705 10.9402C28.0185 10.9402 27.7385 11.0162 27.5305 11.1682C27.3225 11.3202 27.1505 11.4922 27.0145 11.6842L25.9585 10.7482C26.2145 10.3722 26.5345 10.0802 26.9185 9.87219C27.3105 9.65619 27.8385 9.54819 28.5025 9.54819C29.3985 9.54819 30.0705 9.74419 30.5185 10.1362C30.9665 10.5282 31.1905 11.1002 31.1905 11.8522V14.6122H31.7785V15.9922H30.7945ZM28.3345 14.9002C28.6305 14.9002 28.8825 14.8362 29.0905 14.7082C29.3065 14.5802 29.4145 14.3722 29.4145 14.0842V13.3402H28.5505C27.8545 13.3402 27.5065 13.5762 27.5065 14.0482V14.2282C27.5065 14.4602 27.5785 14.6322 27.7225 14.7442C27.8665 14.8482 28.0705 14.9002 28.3345 14.9002ZM35.1066 16.1362C34.4986 16.1362 33.9866 16.0402 33.5706 15.8482C33.1546 15.6482 32.7826 15.3682 32.4546 15.0082L33.4986 13.9522C33.7226 14.2002 33.9706 14.3962 34.2426 14.5402C34.5146 14.6842 34.8226 14.7562 35.1666 14.7562C35.5186 14.7562 35.7626 14.7042 35.8986 14.6002C36.0346 14.4882 36.1026 14.3402 36.1026 14.1562C36.1026 13.8602 35.8906 13.6842 35.4666 13.6282L34.7826 13.5442C33.3666 13.3682 32.6586 12.7202 32.6586 11.6002C32.6586 11.2962 32.7146 11.0202 32.8266 10.7722C32.9466 10.5162 33.1106 10.3002 33.3186 10.1242C33.5346 9.94019 33.7906 9.80019 34.0866 9.70419C34.3906 9.60019 34.7306 9.54819 35.1066 9.54819C35.4346 9.54819 35.7226 9.57219 35.9706 9.62019C36.2266 9.66019 36.4506 9.72419 36.6426 9.81219C36.8426 9.89219 37.0226 9.99619 37.1826 10.1242C37.3506 10.2442 37.5146 10.3802 37.6746 10.5322L36.6546 11.5762C36.4546 11.3762 36.2266 11.2202 35.9706 11.1082C35.7226 10.9882 35.4666 10.9282 35.2026 10.9282C34.8986 10.9282 34.6826 10.9762 34.5546 11.0722C34.4266 11.1682 34.3626 11.2962 34.3626 11.4562C34.3626 11.6242 34.4066 11.7562 34.4946 11.8522C34.5906 11.9402 34.7666 12.0042 35.0226 12.0442L35.7306 12.1402C37.1146 12.3242 37.8066 12.9562 37.8066 14.0362C37.8066 14.3402 37.7426 14.6202 37.6146 14.8762C37.4866 15.1322 37.3026 15.3562 37.0626 15.5482C36.8306 15.7322 36.5466 15.8762 36.2106 15.9802C35.8826 16.0842 35.5146 16.1362 35.1066 16.1362ZM41.0714 16.1362C40.4634 16.1362 39.9514 16.0402 39.5354 15.8482C39.1194 15.6482 38.7474 15.3682 38.4194 15.0082L39.4634 13.9522C39.6874 14.2002 39.9354 14.3962 40.2074 14.5402C40.4794 14.6842 40.7874 14.7562 41.1314 14.7562C41.4834 14.7562 41.7274 14.7042 41.8634 14.6002C41.9994 14.4882 42.0674 14.3402 42.0674 14.1562C42.0674 13.8602 41.8554 13.6842 41.4314 13.6282L40.7474 13.5442C39.3314 13.3682 38.6234 12.7202 38.6234 11.6002C38.6234 11.2962 38.6794 11.0202 38.7914 10.7722C38.9114 10.5162 39.0754 10.3002 39.2834 10.1242C39.4994 9.94019 39.7554 9.80019 40.0514 9.70419C40.3554 9.60019 40.6954 9.54819 41.0714 9.54819C41.3994 9.54819 41.6874 9.57219 41.9354 9.62019C42.1914 9.66019 42.4154 9.72419 42.6074 9.81219C42.8074 9.89219 42.9874 9.99619 43.1474 10.1242C43.3154 10.2442 43.4794 10.3802 43.6394 10.5322L42.6194 11.5762C42.4194 11.3762 42.1914 11.2202 41.9354 11.1082C41.6874 10.9882 41.4314 10.9282 41.1674 10.9282C40.8634 10.9282 40.6474 10.9762 40.5194 11.0722C40.3914 11.1682 40.3274 11.2962 40.3274 11.4562C40.3274 11.6242 40.3714 11.7562 40.4594 11.8522C40.5554 11.9402 40.7314 12.0042 40.9874 12.0442L41.6954 12.1402C43.0794 12.3242 43.7714 12.9562 43.7714 14.0362C43.7714 14.3402 43.7074 14.6202 43.5794 14.8762C43.4514 15.1322 43.2674 15.3562 43.0274 15.5482C42.7954 15.7322 42.5114 15.8762 42.1754 15.9802C41.8474 16.0842 41.4794 16.1362 41.0714 16.1362ZM47.5383 16.1362C47.0743 16.1362 46.6583 16.0602 46.2903 15.9082C45.9303 15.7562 45.6223 15.5362 45.3663 15.2482C45.1183 14.9602 44.9263 14.6122 44.7903 14.2042C44.6543 13.7962 44.5863 13.3402 44.5863 12.8362C44.5863 12.3322 44.6543 11.8762 44.7903 11.4682C44.9263 11.0602 45.1183 10.7162 45.3663 10.4362C45.6223 10.1482 45.9303 9.92819 46.2903 9.77619C46.6583 9.62419 47.0743 9.54819 47.5383 9.54819C48.0023 9.54819 48.4143 9.62419 48.7743 9.77619C49.1423 9.92819 49.4503 10.1482 49.6983 10.4362C49.9543 10.7162 50.1503 11.0602 50.2863 11.4682C50.4223 11.8762 50.4903 12.3322 50.4903 12.8362C50.4903 13.3402 50.4223 13.7962 50.2863 14.2042C50.1503 14.6122 49.9543 14.9602 49.6983 15.2482C49.4503 15.5362 49.1423 15.7562 48.7743 15.9082C48.4143 16.0602 48.0023 16.1362 47.5383 16.1362ZM47.5383 14.7322C47.8903 14.7322 48.1623 14.6242 48.3543 14.4082C48.5463 14.1922 48.6423 13.8842 48.6423 13.4842V12.2002C48.6423 11.8002 48.5463 11.4922 48.3543 11.2762C48.1623 11.0602 47.8903 10.9522 47.5383 10.9522C47.1863 10.9522 46.9143 11.0602 46.7223 11.2762C46.5303 11.4922 46.4343 11.8002 46.4343 12.2002V13.4842C46.4343 13.8842 46.5303 14.1922 46.7223 14.4082C46.9143 14.6242 47.1863 14.7322 47.5383 14.7322Z" fill="white"/>
</svg>
