<svg width="131" height="47" viewBox="0 0 131 47" fill="none" xmlns="http://www.w3.org/2000/svg">
<mask id="mask0_929_112" style="mask-type:alpha" maskUnits="userSpaceOnUse" x="2" y="10" width="128" height="28">
<path d="M2.772 37V11.872H14.652C15.828 11.872 16.884 12.076 17.82 12.484C18.756 12.868 19.548 13.408 20.196 14.104C20.868 14.8 21.384 15.652 21.744 16.66C22.104 17.644 22.284 18.724 22.284 19.9C22.284 21.1 22.104 22.192 21.744 23.176C21.384 24.16 20.868 25 20.196 25.696C19.548 26.392 18.756 26.944 17.82 27.352C16.884 27.736 15.828 27.928 14.652 27.928H8.244V37H2.772ZM8.244 23.176H14.004C14.82 23.176 15.456 22.972 15.912 22.564C16.392 22.132 16.632 21.508 16.632 20.692V19.108C16.632 18.292 16.392 17.68 15.912 17.272C15.456 16.84 14.82 16.624 14.004 16.624H8.244V23.176ZM28.773 16.084C27.693 16.084 26.901 15.844 26.397 15.364C25.917 14.86 25.677 14.224 25.677 13.456V12.664C25.677 11.896 25.917 11.272 26.397 10.792C26.901 10.288 27.693 10.036 28.773 10.036C29.853 10.036 30.633 10.288 31.113 10.792C31.617 11.272 31.869 11.896 31.869 12.664V13.456C31.869 14.224 31.617 14.86 31.113 15.364C30.633 15.844 29.853 16.084 28.773 16.084ZM26.109 18.1H31.437V37H26.109V18.1ZM34.5738 37L40.8018 27.388L34.6458 18.1H40.6938L44.2218 24.04H44.3658L47.7858 18.1H53.4018L47.1378 27.568L53.4378 37H47.3898L43.7538 30.844H43.6098L40.1178 37H34.5738ZM70.5223 37C69.5623 37 68.7583 36.7 68.1103 36.1C67.4863 35.5 67.0903 34.696 66.9223 33.688H66.7063C66.4183 34.912 65.7823 35.848 64.7983 36.496C63.8143 37.12 62.6023 37.432 61.1623 37.432C59.2663 37.432 57.8143 36.928 56.8063 35.92C55.7983 34.912 55.2943 33.58 55.2943 31.924C55.2943 29.932 56.0143 28.456 57.4543 27.496C58.9183 26.512 60.8983 26.02 63.3943 26.02H66.3823V24.832C66.3823 23.92 66.1423 23.2 65.6623 22.672C65.1823 22.12 64.3783 21.844 63.2503 21.844C62.1943 21.844 61.3543 22.072 60.7303 22.528C60.1063 22.984 59.5903 23.5 59.1823 24.076L56.0143 21.268C56.7823 20.14 57.7423 19.264 58.8943 18.64C60.0703 17.992 61.6543 17.668 63.6463 17.668C66.3343 17.668 68.3503 18.256 69.6943 19.432C71.0383 20.608 71.7103 22.324 71.7103 24.58V32.86H73.4743V37H70.5223ZM63.1423 33.724C64.0303 33.724 64.7863 33.532 65.4103 33.148C66.0583 32.764 66.3823 32.14 66.3823 31.276V29.044H63.7903C61.7023 29.044 60.6583 29.752 60.6583 31.168V31.708C60.6583 32.404 60.8743 32.92 61.3063 33.256C61.7383 33.568 62.3503 33.724 63.1423 33.724ZM83.4584 37.432C81.6344 37.432 80.0984 37.144 78.8504 36.568C77.6024 35.968 76.4864 35.128 75.5024 34.048L78.6344 30.88C79.3064 31.624 80.0504 32.212 80.8664 32.644C81.6824 33.076 82.6064 33.292 83.6384 33.292C84.6944 33.292 85.4264 33.136 85.8344 32.824C86.2424 32.488 86.4464 32.044 86.4464 31.492C86.4464 30.604 85.8104 30.076 84.5384 29.908L82.4864 29.656C78.2384 29.128 76.1144 27.184 76.1144 23.824C76.1144 22.912 76.2824 22.084 76.6184 21.34C76.9784 20.572 77.4704 19.924 78.0944 19.396C78.7424 18.844 79.5104 18.424 80.3984 18.136C81.3104 17.824 82.3304 17.668 83.4584 17.668C84.4424 17.668 85.3064 17.74 86.0504 17.884C86.8184 18.004 87.4904 18.196 88.0664 18.46C88.6664 18.7 89.2064 19.012 89.6864 19.396C90.1904 19.756 90.6824 20.164 91.1624 20.62L88.1024 23.752C87.5024 23.152 86.8184 22.684 86.0504 22.348C85.3064 21.988 84.5384 21.808 83.7464 21.808C82.8344 21.808 82.1864 21.952 81.8024 22.24C81.4184 22.528 81.2264 22.912 81.2264 23.392C81.2264 23.896 81.3584 24.292 81.6224 24.58C81.9104 24.844 82.4384 25.036 83.2064 25.156L85.3304 25.444C89.4824 25.996 91.5584 27.892 91.5584 31.132C91.5584 32.044 91.3664 32.884 90.9824 33.652C90.5984 34.42 90.0464 35.092 89.3264 35.668C88.6304 36.22 87.7784 36.652 86.7704 36.964C85.7864 37.276 84.6824 37.432 83.4584 37.432ZM101.353 37.432C99.5289 37.432 97.9929 37.144 96.7449 36.568C95.4969 35.968 94.3809 35.128 93.3969 34.048L96.5289 30.88C97.2009 31.624 97.9449 32.212 98.7609 32.644C99.5769 33.076 100.501 33.292 101.533 33.292C102.589 33.292 103.321 33.136 103.729 32.824C104.137 32.488 104.341 32.044 104.341 31.492C104.341 30.604 103.705 30.076 102.433 29.908L100.381 29.656C96.1329 29.128 94.0089 27.184 94.0089 23.824C94.0089 22.912 94.1769 22.084 94.5129 21.34C94.8729 20.572 95.3649 19.924 95.9889 19.396C96.6369 18.844 97.4049 18.424 98.2929 18.136C99.2049 17.824 100.225 17.668 101.353 17.668C102.337 17.668 103.201 17.74 103.945 17.884C104.713 18.004 105.385 18.196 105.961 18.46C106.561 18.7 107.101 19.012 107.581 19.396C108.085 19.756 108.577 20.164 109.057 20.62L105.997 23.752C105.397 23.152 104.713 22.684 103.945 22.348C103.201 21.988 102.433 21.808 101.641 21.808C100.729 21.808 100.081 21.952 99.6969 22.24C99.3129 22.528 99.1209 22.912 99.1209 23.392C99.1209 23.896 99.2529 24.292 99.5169 24.58C99.8049 24.844 100.333 25.036 101.101 25.156L103.225 25.444C107.377 25.996 109.453 27.892 109.453 31.132C109.453 32.044 109.261 32.884 108.877 33.652C108.493 34.42 107.941 35.092 107.221 35.668C106.525 36.22 105.673 36.652 104.665 36.964C103.681 37.276 102.577 37.432 101.353 37.432ZM120.754 37.432C119.362 37.432 118.114 37.204 117.01 36.748C115.93 36.292 115.006 35.632 114.238 34.768C113.494 33.904 112.918 32.86 112.51 31.636C112.102 30.412 111.898 29.044 111.898 27.532C111.898 26.02 112.102 24.652 112.51 23.428C112.918 22.204 113.494 21.172 114.238 20.332C115.006 19.468 115.93 18.808 117.01 18.352C118.114 17.896 119.362 17.668 120.754 17.668C122.146 17.668 123.382 17.896 124.462 18.352C125.566 18.808 126.49 19.468 127.234 20.332C128.002 21.172 128.59 22.204 128.998 23.428C129.406 24.652 129.61 26.02 129.61 27.532C129.61 29.044 129.406 30.412 128.998 31.636C128.59 32.86 128.002 33.904 127.234 34.768C126.49 35.632 125.566 36.292 124.462 36.748C123.382 37.204 122.146 37.432 120.754 37.432ZM120.754 33.22C121.81 33.22 122.626 32.896 123.202 32.248C123.778 31.6 124.066 30.676 124.066 29.476V25.624C124.066 24.424 123.778 23.5 123.202 22.852C122.626 22.204 121.81 21.88 120.754 21.88C119.698 21.88 118.882 22.204 118.306 22.852C117.73 23.5 117.442 24.424 117.442 25.624V29.476C117.442 30.676 117.73 31.6 118.306 32.248C118.882 32.896 119.698 33.22 120.754 33.22Z" fill="white"/>
<path d="M2.772 37H1.772V38H2.772V37ZM2.772 11.872V10.872H1.772V11.872H2.772ZM17.82 12.484L17.4204 13.4007L17.4304 13.405L17.4404 13.4092L17.82 12.484ZM20.196 14.104L19.4641 14.7854L19.4703 14.7921L19.4766 14.7986L20.196 14.104ZM21.744 16.66L20.8022 16.9963L20.8049 17.0036L21.744 16.66ZM21.744 23.176L22.6831 23.5196L22.6831 23.5196L21.744 23.176ZM20.196 25.696L19.4766 25.0014L19.4703 25.0079L19.4641 25.0146L20.196 25.696ZM17.82 27.352L18.1996 28.2772L18.2096 28.273L18.2196 28.2687L17.82 27.352ZM8.244 27.928V26.928H7.244V27.928H8.244ZM8.244 37V38H9.244V37H8.244ZM8.244 23.176H7.244V24.176H8.244V23.176ZM15.912 22.564L16.5788 23.3092L16.581 23.3073L15.912 22.564ZM15.912 17.272L15.2243 17.998L15.2438 18.0165L15.2644 18.0339L15.912 17.272ZM8.244 16.624V15.624H7.244V16.624H8.244ZM3.772 37V11.872H1.772V37H3.772ZM2.772 12.872H14.652V10.872H2.772V12.872ZM14.652 12.872C15.7112 12.872 16.6282 13.0554 17.4204 13.4007L18.2196 11.5673C17.1398 11.0966 15.9448 10.872 14.652 10.872V12.872ZM17.4404 13.4092C18.2515 13.7419 18.9208 14.2018 19.4641 14.7854L20.9279 13.4226C20.1752 12.6142 19.2605 11.9941 18.1996 11.5588L17.4404 13.4092ZM19.4766 14.7986C20.0398 15.3819 20.4849 16.1079 20.8023 16.9963L22.6857 16.3237C22.2831 15.1961 21.6962 14.2181 20.9154 13.4094L19.4766 14.7986ZM20.8049 17.0036C21.12 17.8649 21.284 18.827 21.284 19.9H23.284C23.284 18.621 23.088 17.4231 22.6831 16.3164L20.8049 17.0036ZM21.284 19.9C21.284 20.9996 21.1192 21.9732 20.8049 22.8324L22.6831 23.5196C23.0888 22.4108 23.284 21.2004 23.284 19.9H21.284ZM20.8049 22.8324C20.4888 23.6964 20.0438 24.4139 19.4766 25.0014L20.9154 26.3906C21.6922 25.5861 22.2792 24.6236 22.6831 23.5196L20.8049 22.8324ZM19.4641 25.0146C18.9163 25.603 18.2401 26.078 17.4204 26.4353L18.2196 28.2687C19.2719 27.81 20.1797 27.181 20.9279 26.3774L19.4641 25.0146ZM17.4404 26.4268C16.6428 26.7541 15.7187 26.928 14.652 26.928V28.928C15.9373 28.928 17.1252 28.7179 18.1996 28.2772L17.4404 26.4268ZM14.652 26.928H8.244V28.928H14.652V26.928ZM7.244 27.928V37H9.244V27.928H7.244ZM8.244 36H2.772V38H8.244V36ZM8.244 24.176H14.004V22.176H8.244V24.176ZM14.004 24.176C14.9826 24.176 15.8856 23.9295 16.5788 23.3092L15.2452 21.8188C15.0264 22.0145 14.6574 22.176 14.004 22.176V24.176ZM16.581 23.3073C17.3246 22.638 17.632 21.7115 17.632 20.692H15.632C15.632 21.3045 15.4594 21.626 15.243 21.8207L16.581 23.3073ZM17.632 20.692V19.108H15.632V20.692H17.632ZM17.632 19.108C17.632 18.0915 17.3254 17.1609 16.5597 16.5101L15.2644 18.0339C15.4586 18.1991 15.632 18.4925 15.632 19.108H17.632ZM16.5997 16.546C15.9076 15.8903 14.9967 15.624 14.004 15.624V17.624C14.6433 17.624 15.0044 17.7897 15.2243 17.998L16.5997 16.546ZM14.004 15.624H8.244V17.624H14.004V15.624ZM7.244 16.624V23.176H9.244V16.624H7.244ZM26.397 15.364L25.6729 16.0537L25.6897 16.0713L25.7073 16.0881L26.397 15.364ZM26.397 10.792L25.6899 10.0849L25.6899 10.0849L26.397 10.792ZM31.113 10.792L30.3889 11.4817L30.4057 11.4993L30.4233 11.5161L31.113 10.792ZM31.113 15.364L31.8201 16.0711L31.8201 16.0711L31.113 15.364ZM26.109 18.1V17.1H25.109V18.1H26.109ZM31.437 18.1H32.437V17.1H31.437V18.1ZM31.437 37V38H32.437V37H31.437ZM26.109 37H25.109V38H26.109V37ZM28.773 15.084C27.8127 15.084 27.3248 14.8666 27.0867 14.6399L25.7073 16.0881C26.4772 16.8214 27.5733 17.084 28.773 17.084V15.084ZM27.1211 14.6743C26.8372 14.3762 26.677 13.9962 26.677 13.456H24.677C24.677 14.4518 24.9968 15.3438 25.6729 16.0537L27.1211 14.6743ZM26.677 13.456V12.664H24.677V13.456H26.677ZM26.677 12.664C26.677 12.1232 26.8369 11.7663 27.1041 11.4991L25.6899 10.0849C24.9971 10.7777 24.677 11.6688 24.677 12.664H26.677ZM27.1041 11.4991C27.3431 11.2601 27.8237 11.036 28.773 11.036V9.036C27.5623 9.036 26.4589 9.3159 25.6899 10.0849L27.1041 11.4991ZM28.773 11.036C29.7276 11.036 30.18 11.2623 30.3889 11.4817L31.8371 10.1023C31.086 9.3137 29.9784 9.036 28.773 9.036V11.036ZM30.4233 11.5161C30.7076 11.7868 30.869 12.1384 30.869 12.664H32.869C32.869 11.6536 32.5264 10.7572 31.8027 10.0679L30.4233 11.5161ZM30.869 12.664V13.456H32.869V12.664H30.869ZM30.869 13.456C30.869 13.9815 30.7069 14.3559 30.4059 14.6569L31.8201 16.0711C32.5271 15.3641 32.869 14.4665 32.869 13.456H30.869ZM30.4059 14.6569C30.1985 14.8643 29.739 15.084 28.773 15.084V17.084C29.967 17.084 31.0675 16.8237 31.8201 16.0711L30.4059 14.6569ZM26.109 19.1H31.437V17.1H26.109V19.1ZM30.437 18.1V37H32.437V18.1H30.437ZM31.437 36H26.109V38H31.437V36ZM27.109 37V18.1H25.109V37H27.109ZM34.5738 37L33.7345 36.4562L32.7343 38H34.5738V37ZM40.8018 27.388L41.641 27.9318L41.9974 27.3818L41.6353 26.8355L40.8018 27.388ZM34.6458 18.1V17.1H32.7833L33.8122 18.6525L34.6458 18.1ZM40.6938 18.1L41.5536 17.5893L41.2629 17.1H40.6938V18.1ZM44.2218 24.04L43.362 24.5507L43.6526 25.04H44.2218V24.04ZM44.3658 24.04V25.04H44.9439L45.2324 24.539L44.3658 24.04ZM47.7858 18.1V17.1H47.2076L46.9192 17.601L47.7858 18.1ZM53.4018 18.1L54.2358 18.6518L55.2624 17.1H53.4018V18.1ZM47.1378 27.568L46.3038 27.0162L45.937 27.5706L46.3062 28.1234L47.1378 27.568ZM53.4378 37V38H55.3083L54.2693 36.4446L53.4378 37ZM47.3898 37L46.5288 37.5086L46.819 38H47.3898V37ZM43.7538 30.844L44.6148 30.3354L44.3245 29.844H43.7538V30.844ZM43.6098 30.844V29.844H43.0273L42.74 30.3506L43.6098 30.844ZM40.1178 37V38H40.7002L40.9876 37.4934L40.1178 37ZM35.413 37.5438L41.641 27.9318L39.9625 26.8442L33.7345 36.4562L35.413 37.5438ZM41.6353 26.8355L35.4793 17.5475L33.8122 18.6525L39.9682 27.9405L41.6353 26.8355ZM34.6458 19.1H40.6938V17.1H34.6458V19.1ZM39.834 18.6107L43.362 24.5507L45.0816 23.5293L41.5536 17.5893L39.834 18.6107ZM44.2218 25.04H44.3658V23.04H44.2218V25.04ZM45.2324 24.539L48.6524 18.599L46.9192 17.601L43.4992 23.541L45.2324 24.539ZM47.7858 19.1H53.4018V17.1H47.7858V19.1ZM52.5678 17.5482L46.3038 27.0162L47.9718 28.1198L54.2358 18.6518L52.5678 17.5482ZM46.3062 28.1234L52.6062 37.5554L54.2693 36.4446L47.9693 27.0126L46.3062 28.1234ZM53.4378 36H47.3898V38H53.4378V36ZM48.2508 36.4914L44.6148 30.3354L42.8928 31.3526L46.5288 37.5086L48.2508 36.4914ZM43.7538 29.844H43.6098V31.844H43.7538V29.844ZM42.74 30.3506L39.248 36.5066L40.9876 37.4934L44.4796 31.3374L42.74 30.3506ZM40.1178 36H34.5738V38H40.1178V36ZM68.1103 36.1L67.4172 36.8208L67.424 36.8274L67.4309 36.8338L68.1103 36.1ZM66.9223 33.688L67.9087 33.5236L67.7694 32.688H66.9223V33.688ZM66.7063 33.688V32.688H65.9143L65.7329 33.459L66.7063 33.688ZM64.7983 36.496L65.3339 37.3405L65.3411 37.3359L65.3483 37.3312L64.7983 36.496ZM56.8063 35.92L56.0992 36.6271L56.0992 36.6271L56.8063 35.92ZM57.4543 27.496L58.009 28.3281L58.0121 28.326L57.4543 27.496ZM66.3823 26.02V27.02H67.3823V26.02H66.3823ZM65.6623 22.672L64.9077 23.3282L64.9149 23.3365L64.9224 23.3447L65.6623 22.672ZM60.7303 22.528L61.3203 23.3354L61.3203 23.3354L60.7303 22.528ZM59.1823 24.076L58.519 24.8243L59.3537 25.5642L59.9983 24.654L59.1823 24.076ZM56.0143 21.268L55.1877 20.7052L54.6924 21.4326L55.351 22.0163L56.0143 21.268ZM58.8943 18.64L59.3706 19.5193L59.3769 19.5158L58.8943 18.64ZM69.6943 19.432L70.3528 18.6794L70.3528 18.6794L69.6943 19.432ZM71.7103 32.86H70.7103V33.86H71.7103V32.86ZM73.4743 32.86H74.4743V31.86H73.4743V32.86ZM73.4743 37V38H74.4743V37H73.4743ZM65.4103 33.148L64.9005 32.2877L64.8933 32.292L64.8862 32.2963L65.4103 33.148ZM66.3823 29.044H67.3823V28.044H66.3823V29.044ZM61.3063 33.256L60.6924 34.0454L60.7064 34.0563L60.7208 34.0667L61.3063 33.256ZM70.5223 36C69.7903 36 69.2361 35.7795 68.7897 35.3662L67.4309 36.8338C68.2806 37.6205 69.3343 38 70.5223 38V36ZM68.8034 35.3792C68.3611 34.9539 68.0479 34.359 67.9087 33.5236L65.9359 33.8524C66.1327 35.033 66.6115 36.0461 67.4172 36.8208L68.8034 35.3792ZM66.9223 32.688H66.7063V34.688H66.9223V32.688ZM65.7329 33.459C65.4991 34.4526 65.0037 35.1634 64.2483 35.6608L65.3483 37.3312C66.561 36.5326 67.3375 35.3714 67.6797 33.917L65.7329 33.459ZM64.2628 35.6515C63.4729 36.1524 62.4574 36.432 61.1623 36.432V38.432C62.7472 38.432 64.1557 38.0876 65.3339 37.3405L64.2628 35.6515ZM61.1623 36.432C59.441 36.432 58.2783 35.9778 57.5134 35.2129L56.0992 36.6271C57.3503 37.8782 59.0916 38.432 61.1623 38.432V36.432ZM57.5134 35.2129C56.7234 34.4228 56.2943 33.3611 56.2943 31.924H54.2943C54.2943 33.7989 54.8733 35.4012 56.0992 36.6271L57.5134 35.2129ZM56.2943 31.924C56.2943 30.2076 56.8928 29.0722 58.009 28.3281L56.8996 26.6639C55.1358 27.8398 54.2943 29.6564 54.2943 31.924H56.2943ZM58.0121 28.326C59.2559 27.49 61.0178 27.02 63.3943 27.02V25.02C60.7788 25.02 58.5807 25.534 56.8965 26.666L58.0121 28.326ZM63.3943 27.02H66.3823V25.02H63.3943V27.02ZM67.3823 26.02V24.832H65.3823V26.02H67.3823ZM67.3823 24.832C67.3823 23.7427 67.0922 22.7582 66.4023 21.9993L64.9224 23.3447C65.1925 23.6418 65.3823 24.0973 65.3823 24.832H67.3823ZM66.4169 22.0158C65.6639 21.1499 64.511 20.844 63.2503 20.844V22.844C64.2456 22.844 64.7007 23.0901 64.9077 23.3282L66.4169 22.0158ZM63.2503 20.844C62.0585 20.844 60.9883 21.1009 60.1403 21.7206L61.3203 23.3354C61.7203 23.0431 62.3302 22.844 63.2503 22.844V20.844ZM60.1403 21.7206C59.4373 22.2343 58.8424 22.8259 58.3663 23.498L59.9983 24.654C60.3382 24.1741 60.7753 23.7337 61.3203 23.3354L60.1403 21.7206ZM59.8456 23.3277L56.6776 20.5197L55.351 22.0163L58.519 24.8243L59.8456 23.3277ZM56.8409 21.8308C57.5229 20.8291 58.3649 20.0641 59.3706 19.5193L58.418 17.7607C57.1198 18.4639 56.0417 19.4509 55.1877 20.7052L56.8409 21.8308ZM59.3769 19.5158C60.3506 18.9793 61.7475 18.668 63.6463 18.668V16.668C61.5611 16.668 59.79 17.0047 58.4117 17.7642L59.3769 19.5158ZM63.6463 18.668C66.2105 18.668 67.9469 19.2318 69.0358 20.1846L70.3528 18.6794C68.7537 17.2802 66.4581 16.668 63.6463 16.668V18.668ZM69.0358 20.1846C70.1081 21.1228 70.7103 22.5307 70.7103 24.58H72.7103C72.7103 22.1173 71.9685 20.0932 70.3528 18.6794L69.0358 20.1846ZM70.7103 24.58V32.86H72.7103V24.58H70.7103ZM71.7103 33.86H73.4743V31.86H71.7103V33.86ZM72.4743 32.86V37H74.4743V32.86H72.4743ZM73.4743 36H70.5223V38H73.4743V36ZM63.1423 34.724C64.176 34.724 65.1223 34.4994 65.9344 33.9997L64.8862 32.2963C64.4503 32.5646 63.8846 32.724 63.1423 32.724V34.724ZM65.9201 34.0083C66.9217 33.4148 67.3823 32.4313 67.3823 31.276H65.3823C65.3823 31.8487 65.1949 32.1132 64.9005 32.2877L65.9201 34.0083ZM67.3823 31.276V29.044H65.3823V31.276H67.3823ZM66.3823 28.044H63.7903V30.044H66.3823V28.044ZM63.7903 28.044C62.6646 28.044 61.6442 28.2292 60.88 28.7474C60.0465 29.3126 59.6583 30.1759 59.6583 31.168H61.6583C61.6583 30.7441 61.7921 30.5454 62.0026 30.4026C62.2825 30.2128 62.828 30.044 63.7903 30.044V28.044ZM59.6583 31.168V31.708H61.6583V31.168H59.6583ZM59.6583 31.708C59.6583 32.6207 59.9525 33.4699 60.6924 34.0454L61.9203 32.4666C61.7962 32.3701 61.6583 32.1873 61.6583 31.708H59.6583ZM60.7208 34.0667C61.3879 34.5485 62.2372 34.724 63.1423 34.724V32.724C62.4634 32.724 62.0887 32.5875 61.8918 32.4453L60.7208 34.0667ZM78.8504 36.568L78.4171 37.4693L78.4242 37.4727L78.4313 37.476L78.8504 36.568ZM75.5024 34.048L74.7913 33.3449L74.124 34.0199L74.7632 34.7215L75.5024 34.048ZM78.6344 30.88L79.3765 30.2097L78.6672 29.4244L77.9233 30.1769L78.6344 30.88ZM80.8664 32.644L81.3343 31.7602L80.8664 32.644ZM85.8344 32.824L86.4419 33.6184L86.4562 33.6074L86.4701 33.5959L85.8344 32.824ZM84.5384 29.908L84.6694 28.9166L84.6603 28.9155L84.5384 29.908ZM82.4864 29.656L82.3631 30.6484L82.3645 30.6485L82.4864 29.656ZM76.6184 21.34L75.7129 20.9156L75.7099 20.922L75.707 20.9284L76.6184 21.34ZM78.0944 19.396L78.7404 20.1594L78.7429 20.1572L78.0944 19.396ZM80.3984 18.136L80.7069 19.0872L80.7145 19.0848L80.7221 19.0822L80.3984 18.136ZM86.0504 17.884L85.8604 18.8658L85.8782 18.8692L85.896 18.872L86.0504 17.884ZM88.0664 18.46L87.6498 19.3691L87.6721 19.3793L87.695 19.3885L88.0664 18.46ZM89.6864 19.396L89.0617 20.1769L89.083 20.1939L89.1052 20.2097L89.6864 19.396ZM91.1624 20.62L91.8777 21.3188L92.5864 20.5935L91.8512 19.895L91.1624 20.62ZM88.1024 23.752L87.3953 24.4591L88.1107 25.1745L88.8177 24.4508L88.1024 23.752ZM86.0504 22.348L85.6148 23.2482L85.6321 23.2565L85.6496 23.2642L86.0504 22.348ZM81.6224 24.58L80.8853 25.2557L80.9146 25.2878L80.9467 25.3172L81.6224 24.58ZM83.2064 25.156L83.052 26.144L83.062 26.1456L83.072 26.1469L83.2064 25.156ZM85.3304 25.444L85.196 26.4349L85.1986 26.4353L85.3304 25.444ZM89.3264 35.668L89.9478 36.4515L89.9511 36.4489L89.3264 35.668ZM86.7704 36.964L86.4747 36.0087L86.4682 36.0108L86.7704 36.964ZM83.4584 36.432C81.734 36.432 80.3505 36.159 79.2695 35.66L78.4313 37.476C79.8463 38.129 81.5348 38.432 83.4584 38.432V36.432ZM79.2837 35.6667C78.1576 35.1254 77.144 34.365 76.2416 33.3745L74.7632 34.7215C75.8288 35.891 77.0472 36.8106 78.4171 37.4693L79.2837 35.6667ZM76.2135 34.7511L79.3455 31.5831L77.9233 30.1769L74.7913 33.3449L76.2135 34.7511ZM77.8923 31.5503C78.6358 32.3735 79.4708 33.0367 80.3985 33.5278L81.3343 31.7602C80.63 31.3873 79.977 30.8745 79.3765 30.2097L77.8923 31.5503ZM80.3985 33.5278C81.375 34.0447 82.4628 34.292 83.6384 34.292V32.292C82.75 32.292 81.9898 32.1073 81.3343 31.7602L80.3985 33.5278ZM83.6384 34.292C84.7223 34.292 85.7519 34.146 86.4419 33.6184L85.227 32.0296C85.1009 32.126 84.6666 32.292 83.6384 32.292V34.292ZM86.4701 33.5959C87.1203 33.0605 87.4464 32.3275 87.4464 31.492H85.4464C85.4464 31.7605 85.3645 31.9155 85.1987 32.0521L86.4701 33.5959ZM87.4464 31.492C87.4464 30.7758 87.1737 30.1301 86.6082 29.6606C86.0859 29.227 85.3972 29.0127 84.6693 28.9166L84.4075 30.8994C84.9516 30.9713 85.2169 31.105 85.3307 31.1994C85.4011 31.2579 85.4464 31.3202 85.4464 31.492H87.4464ZM84.6603 28.9155L82.6083 28.6635L82.3645 30.6485L84.4165 30.9005L84.6603 28.9155ZM82.6098 28.6636C80.5967 28.4134 79.2335 27.8431 78.3826 27.0643C77.5626 26.3138 77.1144 25.2747 77.1144 23.824H75.1144C75.1144 25.7333 75.7282 27.3462 77.0322 28.5397C78.3053 29.7049 80.1281 30.3706 82.3631 30.6484L82.6098 28.6636ZM77.1144 23.824C77.1144 23.0372 77.2587 22.3518 77.5298 21.7516L75.707 20.9284C75.3061 21.8162 75.1144 22.7868 75.1144 23.824H77.1144ZM77.5239 21.7644C77.8251 21.1217 78.2304 20.5909 78.7403 20.1594L77.4485 18.6326C76.7104 19.2571 76.1317 20.0223 75.7129 20.9156L77.5239 21.7644ZM78.7429 20.1572C79.2818 19.6981 79.9315 19.3387 80.7069 19.0872L80.0899 17.1848C79.0893 17.5093 78.203 17.9899 77.4459 18.6348L78.7429 20.1572ZM80.7221 19.0822C81.5139 18.8113 82.4222 18.668 83.4584 18.668V16.668C82.2386 16.668 81.1069 16.8367 80.0747 17.1898L80.7221 19.0822ZM83.4584 18.668C84.3964 18.668 85.1943 18.7369 85.8604 18.8658L86.2404 16.9022C85.4185 16.7431 84.4884 16.668 83.4584 16.668V18.668ZM85.896 18.872C86.5931 18.9809 87.1735 19.1508 87.6498 19.3691L88.4831 17.5509C87.8073 17.2412 87.0437 17.0271 86.2048 16.896L85.896 18.872ZM87.695 19.3885C88.2085 19.5939 88.6623 19.8573 89.0617 20.1769L90.3111 18.6151C89.7505 18.1667 89.1243 17.8061 88.4378 17.5315L87.695 19.3885ZM89.1052 20.2097C89.5688 20.5409 90.0251 20.9189 90.4737 21.345L91.8512 19.895C91.3397 19.4091 90.812 18.9711 90.2676 18.5823L89.1052 20.2097ZM90.4471 19.9212L87.3871 23.0532L88.8177 24.4508L91.8777 21.3188L90.4471 19.9212ZM88.8095 23.0449C88.1224 22.3578 87.3349 21.8184 86.4512 21.4318L85.6496 23.2642C86.3019 23.5496 86.8824 23.9462 87.3953 24.4591L88.8095 23.0449ZM86.486 21.4478C85.6123 21.0251 84.6959 20.808 83.7464 20.808V22.808C84.3809 22.808 85.0006 22.9509 85.6148 23.2482L86.486 21.4478ZM83.7464 20.808C82.785 20.808 81.8573 20.9488 81.2024 21.44L82.4024 23.04C82.5155 22.9552 82.8838 22.808 83.7464 22.808V20.808ZM81.2024 21.44C80.5666 21.9169 80.2264 22.5972 80.2264 23.392H82.2264C82.2264 23.2268 82.2702 23.1391 82.4024 23.04L81.2024 21.44ZM80.2264 23.392C80.2264 24.0713 80.4076 24.7347 80.8853 25.2557L82.3596 23.9043C82.3092 23.8493 82.2264 23.7207 82.2264 23.392H80.2264ZM80.9467 25.3172C81.4653 25.7925 82.2489 26.0185 83.052 26.144L83.3608 24.168C82.6279 24.0535 82.3555 23.8955 82.2981 23.8428L80.9467 25.3172ZM83.072 26.1469L85.196 26.4349L85.4648 24.4531L83.3408 24.1651L83.072 26.1469ZM85.1986 26.4353C87.1659 26.6968 88.4971 27.2605 89.327 28.0184C90.1252 28.7473 90.5584 29.7459 90.5584 31.132H92.5584C92.5584 29.2781 91.9536 27.7087 90.6758 26.5416C89.4297 25.4035 87.6469 24.7432 85.4622 24.4527L85.1986 26.4353ZM90.5584 31.132C90.5584 31.8986 90.3983 32.5842 90.088 33.2048L91.8768 34.0992C92.3346 33.1838 92.5584 32.1894 92.5584 31.132H90.5584ZM90.088 33.2048C89.7734 33.834 89.3172 34.3947 88.7017 34.8871L89.9511 36.4489C90.7756 35.7893 91.4234 35.006 91.8768 34.0992L90.088 33.2048ZM88.705 34.8845C88.1224 35.3466 87.3862 35.7266 86.4747 36.0087L87.0661 37.9193C88.1706 37.5774 89.1384 37.0934 89.9478 36.4515L88.705 34.8845ZM86.4682 36.0108C85.5981 36.2866 84.5983 36.432 83.4584 36.432V38.432C84.7665 38.432 85.9747 38.2654 87.0727 37.9172L86.4682 36.0108ZM96.7449 36.568L96.3116 37.4693L96.3187 37.4727L96.3259 37.476L96.7449 36.568ZM93.3969 34.048L92.6858 33.3449L92.0185 34.0199L92.6577 34.7215L93.3969 34.048ZM96.5289 30.88L97.271 30.2097L96.5618 29.4244L95.8178 30.1769L96.5289 30.88ZM98.7609 32.644L99.2288 31.7602L98.7609 32.644ZM103.729 32.824L104.336 33.6184L104.351 33.6074L104.365 33.5959L103.729 32.824ZM102.433 29.908L102.564 28.9166L102.555 28.9155L102.433 29.908ZM100.381 29.656L100.258 30.6484L100.259 30.6485L100.381 29.656ZM94.5129 21.34L93.6075 20.9156L93.6045 20.922L93.6016 20.9284L94.5129 21.34ZM95.9889 19.396L96.6349 20.1594L96.6374 20.1572L95.9889 19.396ZM98.2929 18.136L98.6014 19.0872L98.6091 19.0848L98.6166 19.0822L98.2929 18.136ZM103.945 17.884L103.755 18.8658L103.773 18.8692L103.791 18.872L103.945 17.884ZM105.961 18.46L105.544 19.3691L105.567 19.3793L105.59 19.3885L105.961 18.46ZM107.581 19.396L106.956 20.1769L106.978 20.1939L107 20.2097L107.581 19.396ZM109.057 20.62L109.772 21.3188L110.481 20.5935L109.746 19.895L109.057 20.62ZM105.997 23.752L105.29 24.4591L106.005 25.1745L106.712 24.4508L105.997 23.752ZM103.945 22.348L103.509 23.2482L103.527 23.2565L103.544 23.2642L103.945 22.348ZM99.5169 24.58L98.7798 25.2557L98.8092 25.2878L98.8412 25.3172L99.5169 24.58ZM101.101 25.156L100.947 26.144L100.957 26.1456L100.967 26.1469L101.101 25.156ZM103.225 25.444L103.091 26.4349L103.093 26.4353L103.225 25.444ZM107.221 35.668L107.842 36.4515L107.846 36.4489L107.221 35.668ZM104.665 36.964L104.369 36.0087L104.363 36.0108L104.665 36.964ZM101.353 36.432C99.6286 36.432 98.2451 36.159 97.164 35.66L96.3259 37.476C97.7408 38.129 99.4293 38.432 101.353 38.432V36.432ZM97.1782 35.6667C96.0522 35.1254 95.0386 34.365 94.1361 33.3745L92.6577 34.7215C93.7233 35.891 94.9417 36.8106 96.3116 37.4693L97.1782 35.6667ZM94.1081 34.7511L97.2401 31.5831L95.8178 30.1769L92.6858 33.3449L94.1081 34.7511ZM95.7868 31.5503C96.5304 32.3735 97.3654 33.0367 98.2931 33.5278L99.2288 31.7602C98.5245 31.3873 97.8715 30.8745 97.271 30.2097L95.7868 31.5503ZM98.2931 33.5278C99.2695 34.0447 100.357 34.292 101.533 34.292V32.292C100.645 32.292 99.8844 32.1073 99.2288 31.7602L98.2931 33.5278ZM101.533 34.292C102.617 34.292 103.646 34.146 104.336 33.6184L103.121 32.0296C102.995 32.126 102.561 32.292 101.533 32.292V34.292ZM104.365 33.5959C105.015 33.0605 105.341 32.3275 105.341 31.492H103.341C103.341 31.7605 103.259 31.9155 103.093 32.0521L104.365 33.5959ZM105.341 31.492C105.341 30.7758 105.068 30.1301 104.503 29.6606C103.98 29.227 103.292 29.0127 102.564 28.9166L102.302 30.8994C102.846 30.9713 103.111 31.105 103.225 31.1994C103.296 31.2579 103.341 31.3202 103.341 31.492H105.341ZM102.555 28.9155L100.503 28.6635L100.259 30.6485L102.311 30.9005L102.555 28.9155ZM100.504 28.6636C98.4912 28.4134 97.128 27.8431 96.2771 27.0643C95.4571 26.3138 95.0089 25.2747 95.0089 23.824H93.0089C93.0089 25.7333 93.6228 27.3462 94.9268 28.5397C96.1999 29.7049 98.0227 30.3706 100.258 30.6484L100.504 28.6636ZM95.0089 23.824C95.0089 23.0372 95.1532 22.3518 95.4243 21.7516L93.6016 20.9284C93.2006 21.8162 93.0089 22.7868 93.0089 23.824H95.0089ZM95.4184 21.7644C95.7197 21.1217 96.1249 20.5909 96.6349 20.1594L95.343 18.6326C94.6049 19.2571 94.0262 20.0223 93.6075 20.9156L95.4184 21.7644ZM96.6374 20.1572C97.1764 19.6981 97.826 19.3387 98.6014 19.0872L97.9844 17.1848C96.9839 17.5093 96.0975 17.9899 95.3405 18.6348L96.6374 20.1572ZM98.6166 19.0822C99.4084 18.8113 100.317 18.668 101.353 18.668V16.668C100.133 16.668 99.0015 16.8367 97.9693 17.1898L98.6166 19.0822ZM101.353 18.668C102.291 18.668 103.089 18.7369 103.755 18.8658L104.135 16.9022C103.313 16.7431 102.383 16.668 101.353 16.668V18.668ZM103.791 18.872C104.488 18.9809 105.068 19.1508 105.544 19.3691L106.378 17.5509C105.702 17.2412 104.938 17.0271 104.099 16.896L103.791 18.872ZM105.59 19.3885C106.103 19.5939 106.557 19.8573 106.956 20.1769L108.206 18.6151C107.645 18.1667 107.019 17.8061 106.332 17.5315L105.59 19.3885ZM107 20.2097C107.463 20.5409 107.92 20.9189 108.368 21.345L109.746 19.895C109.234 19.4091 108.707 18.9711 108.162 18.5823L107 20.2097ZM108.342 19.9212L105.282 23.0532L106.712 24.4508L109.772 21.3188L108.342 19.9212ZM106.704 23.0449C106.017 22.3578 105.229 21.8184 104.346 21.4318L103.544 23.2642C104.196 23.5496 104.777 23.9462 105.29 24.4591L106.704 23.0449ZM104.38 21.4478C103.507 21.0251 102.59 20.808 101.641 20.808V22.808C102.275 22.808 102.895 22.9509 103.509 23.2482L104.38 21.4478ZM101.641 20.808C100.68 20.808 99.7518 20.9488 99.0969 21.44L100.297 23.04C100.41 22.9552 100.778 22.808 101.641 22.808V20.808ZM99.0969 21.44C98.4611 21.9169 98.1209 22.5972 98.1209 23.392H100.121C100.121 23.2268 100.165 23.1391 100.297 23.04L99.0969 21.44ZM98.1209 23.392C98.1209 24.0713 98.3022 24.7347 98.7798 25.2557L100.254 23.9043C100.204 23.8493 100.121 23.7207 100.121 23.392H98.1209ZM98.8412 25.3172C99.3598 25.7925 100.143 26.0185 100.947 26.144L101.255 24.168C100.522 24.0535 100.25 23.8955 100.193 23.8428L98.8412 25.3172ZM100.967 26.1469L103.091 26.4349L103.359 24.4531L101.235 24.1651L100.967 26.1469ZM103.093 26.4353C105.06 26.6968 106.392 27.2605 107.222 28.0184C108.02 28.7473 108.453 29.7459 108.453 31.132H110.453C110.453 29.2781 109.848 27.7087 108.57 26.5416C107.324 25.4035 105.541 24.7432 103.357 24.4527L103.093 26.4353ZM108.453 31.132C108.453 31.8986 108.293 32.5842 107.983 33.2048L109.771 34.0992C110.229 33.1838 110.453 32.1894 110.453 31.132H108.453ZM107.983 33.2048C107.668 33.834 107.212 34.3947 106.596 34.8871L107.846 36.4489C108.67 35.7893 109.318 35.006 109.771 34.0992L107.983 33.2048ZM106.6 34.8845C106.017 35.3466 105.281 35.7266 104.369 36.0087L104.961 37.9193C106.065 37.5774 107.033 37.0934 107.842 36.4515L106.6 34.8845ZM104.363 36.0108C103.493 36.2866 102.493 36.432 101.353 36.432V38.432C102.661 38.432 103.869 38.2654 104.967 37.9172L104.363 36.0108ZM117.01 36.748L116.621 37.6693L116.628 37.6723L117.01 36.748ZM114.238 34.768L113.48 35.4205L113.485 35.4265L113.49 35.4324L114.238 34.768ZM112.51 31.636L113.458 31.3198L113.458 31.3198L112.51 31.636ZM112.51 23.428L113.458 23.7442L113.458 23.7442L112.51 23.428ZM114.238 20.332L113.49 19.6676L113.489 19.669L114.238 20.332ZM117.01 18.352L116.628 17.4277L116.621 17.4308L117.01 18.352ZM124.462 18.352L124.073 19.2733L124.08 19.2763L124.462 18.352ZM127.234 20.332L126.476 20.9845L126.485 20.9958L126.496 21.0068L127.234 20.332ZM128.998 23.428L129.946 23.1118L129.946 23.1118L128.998 23.428ZM128.998 31.636L129.946 31.9522L129.946 31.9522L128.998 31.636ZM127.234 34.768L126.486 34.1036L126.481 34.1095L126.476 34.1155L127.234 34.768ZM124.462 36.748L124.08 35.8237L124.073 35.8268L124.462 36.748ZM123.202 32.248L123.949 32.9124L123.949 32.9124L123.202 32.248ZM123.202 22.852L123.949 22.1876L123.949 22.1876L123.202 22.852ZM118.306 22.852L119.053 23.5164L119.053 23.5164L118.306 22.852ZM118.306 32.248L119.053 31.5836L119.053 31.5836L118.306 32.248ZM120.754 36.432C119.471 36.432 118.356 36.2222 117.391 35.8237L116.628 37.6723C117.871 38.1858 119.252 38.432 120.754 38.432V36.432ZM117.399 35.8268C116.454 35.4278 115.653 34.8548 114.985 34.1036L113.49 35.4324C114.358 36.4092 115.405 37.1562 116.621 37.6692L117.399 35.8268ZM114.995 34.1155C114.347 33.3622 113.83 32.4365 113.458 31.3198L111.561 31.9522C112.005 33.2835 112.64 34.4458 113.48 35.4205L114.995 34.1155ZM113.458 31.3198C113.09 30.2135 112.898 28.9546 112.898 27.532H110.898C110.898 29.1334 111.114 30.6105 111.561 31.9522L113.458 31.3198ZM112.898 27.532C112.898 26.1094 113.09 24.8505 113.458 23.7442L111.561 23.1118C111.114 24.4535 110.898 25.9306 110.898 27.532H112.898ZM113.458 23.7442C113.83 22.6291 114.344 21.7201 114.986 20.995L113.489 19.669C112.643 20.6239 112.005 21.7789 111.561 23.1118L113.458 23.7442ZM114.985 20.9964C115.653 20.2452 116.454 19.6722 117.399 19.2732L116.621 17.4308C115.405 17.9438 114.358 18.6908 113.49 19.6676L114.985 20.9964ZM117.391 19.2763C118.356 18.8778 119.471 18.668 120.754 18.668V16.668C119.252 16.668 117.871 16.9142 116.628 17.4277L117.391 19.2763ZM120.754 18.668C122.037 18.668 123.136 18.878 124.073 19.2732L124.851 17.4308C123.627 16.914 122.255 16.668 120.754 16.668V18.668ZM124.08 19.2763C125.046 19.6753 125.839 20.245 126.476 20.9845L127.991 19.6795C127.14 18.691 126.085 17.9407 124.843 17.4277L124.08 19.2763ZM126.496 21.0068C127.157 21.7304 127.679 22.6354 128.049 23.7442L129.946 23.1118C129.5 21.7726 128.846 20.6136 127.972 19.6572L126.496 21.0068ZM128.049 23.7442C128.418 24.8505 128.61 26.1094 128.61 27.532H130.61C130.61 25.9306 130.394 24.4535 129.946 23.1118L128.049 23.7442ZM128.61 27.532C128.61 28.9546 128.418 30.2135 128.049 31.3198L129.946 31.9522C130.394 30.6105 130.61 29.1334 130.61 27.532H128.61ZM128.049 31.3198C127.679 32.4302 127.154 33.352 126.486 34.1036L127.981 35.4324C128.849 34.456 129.5 33.2898 129.946 31.9522L128.049 31.3198ZM126.476 34.1155C125.839 34.855 125.046 35.4247 124.08 35.8237L124.843 37.6723C126.085 37.1593 127.14 36.409 127.991 35.4205L126.476 34.1155ZM124.073 35.8268C123.136 36.222 122.037 36.432 120.754 36.432V38.432C122.255 38.432 123.627 38.186 124.851 37.6692L124.073 35.8268ZM120.754 34.22C122.028 34.22 123.142 33.8197 123.949 32.9124L122.454 31.5836C122.109 31.9723 121.592 32.22 120.754 32.22V34.22ZM123.949 32.9124C124.741 32.0214 125.066 30.8267 125.066 29.476H123.066C123.066 30.5253 122.814 31.1786 122.454 31.5836L123.949 32.9124ZM125.066 29.476V25.624H123.066V29.476H125.066ZM125.066 25.624C125.066 24.2733 124.741 23.0786 123.949 22.1876L122.454 23.5164C122.814 23.9214 123.066 24.5747 123.066 25.624H125.066ZM123.949 22.1876C123.142 21.2803 122.028 20.88 120.754 20.88V22.88C121.592 22.88 122.109 23.1277 122.454 23.5164L123.949 22.1876ZM120.754 20.88C119.48 20.88 118.365 21.2803 117.558 22.1876L119.053 23.5164C119.398 23.1277 119.916 22.88 120.754 22.88V20.88ZM117.558 22.1876C116.766 23.0786 116.442 24.2733 116.442 25.624H118.442C118.442 24.5747 118.693 23.9214 119.053 23.5164L117.558 22.1876ZM116.442 25.624V29.476H118.442V25.624H116.442ZM116.442 29.476C116.442 30.8267 116.766 32.0214 117.558 32.9124L119.053 31.5836C118.693 31.1786 118.442 30.5253 118.442 29.476H116.442ZM117.558 32.9124C118.365 33.8197 119.48 34.22 120.754 34.22V32.22C119.916 32.22 119.398 31.9723 119.053 31.5836L117.558 32.9124Z" fill="black"/>
</mask>
<g mask="url(#mask0_929_112)">
<rect x="-16" y="2" width="160" height="48" fill="#C4C4C4"/>
<path d="M83.4374 2.54847C83.4973 2.52806 83.5453 2.51189 83.5809 2.5H128H143.5V18.6487L58.3423 49.3452C58.3147 49.2394 58.2836 49.1182 58.2493 48.9825C58.1046 48.4103 57.904 47.5796 57.6809 46.549C57.2346 44.487 56.6993 41.6283 56.3426 38.4405C55.6255 32.0316 55.6465 24.4192 58.4403 19.2373C61.2023 14.1141 67.4531 9.92229 73.1099 6.99341C75.9238 5.53652 78.5627 4.40598 80.4985 3.63967C81.4661 3.25665 82.2571 2.96495 82.8055 2.76929C83.0796 2.67146 83.293 2.59766 83.4374 2.54847Z" fill="#40417D" stroke="black"/>
<path d="M34.2355 18.0758L-15.5 49.0988V2.5H137.326L34.4256 18.0056L34.3232 18.021L34.2355 18.0758Z" fill="#9D6980" stroke="black"/>
<path d="M-15.3851 49.5L-5.59343 2.5H104.056L44.3269 49.5H-15.3851Z" fill="#EB9B33" stroke="black"/>
<path d="M113.819 29.2795V59.3792H82.3187H0.18147C0.235145 59.3245 0.29133 59.2673 0.349985 59.2077C0.993224 58.5541 1.93348 57.6112 3.11995 56.4558C5.49313 54.1449 8.85008 50.985 12.7845 47.5902C20.6654 40.7899 30.8185 33.0862 40.007 29.3423C53.3598 23.9016 71.8805 23.889 87.1275 25.2604C94.7388 25.945 101.511 26.972 106.38 27.8279C108.815 28.2558 110.773 28.6408 112.122 28.9187C112.796 29.0576 113.318 29.1697 113.671 29.247C113.724 29.2587 113.773 29.2695 113.819 29.2795Z" fill="#C3394F" stroke="black"/>
<path d="M79.979 28.8681C81.4634 28.1016 82.9872 27.2658 84.504 26.3998C88.849 23.9192 93.1696 21.1715 96.4021 19.0455C98.0188 17.9821 99.3644 17.0736 100.306 16.4307C100.642 16.2014 100.926 16.0058 101.154 15.8491L107.598 49.4998H87.5629C87.5189 49.3685 87.4625 49.2011 87.3945 49C87.2107 48.4561 86.9418 47.6662 86.6012 46.6811C85.9201 44.7111 84.9521 41.9599 83.8045 38.8352C82.6713 35.7494 81.3615 32.2956 79.979 28.8681ZM74.7133 19.2789C76.0422 22.0435 77.4023 25.1906 78.7077 28.3939C76.2846 29.6143 74.0142 30.6135 72.1057 31.219C70.4637 31.74 69.1618 31.9449 68.2799 31.8022C67.8499 31.7326 67.5562 31.5862 67.3627 31.3889C67.1729 31.1952 67.034 30.906 66.9985 30.4601C66.4366 23.4056 66.3407 18.4443 66.5961 15.1547C66.724 13.5077 66.9382 12.3049 67.214 11.4767C67.4967 10.6273 67.8091 10.277 68.0506 10.1625C68.2509 10.0675 68.5484 10.073 69.0254 10.3992C69.5012 10.7246 70.0548 11.3074 70.6714 12.1385C71.8991 13.7934 73.282 16.3014 74.7133 19.2789Z" fill="#5C8B36" stroke="black"/>
<path d="M27.3987 7.64272L38.5688 20.3767C36.8335 19.8038 34.7714 19.4886 32.5238 19.3616C29.7151 19.2029 26.5831 19.3363 23.3761 19.6485C16.9622 20.2729 10.2074 21.6165 5.06259 22.8017C3.04875 23.2656 1.27967 23.7057 -0.128179 24.0697L27.3987 7.64272ZM42.45 32.2182C43.5166 30.0199 43.9986 28.1251 43.9461 26.5068L51.6222 35.2575L34.3497 40.8231C37.8222 38.4998 40.7797 35.6607 42.45 32.2182Z" fill="#D7BDC0" stroke="black"/>
<path d="M41.8701 2.5L1.23017 15.8246C-1.53898 13.37 -4.20473 11.081 -6.56829 9.08815C-9.23004 6.84394 -11.5099 4.97426 -13.1246 3.66545C-13.6929 3.20481 -14.1788 2.81362 -14.57 2.5H41.8701ZM0.995852 16.9538C4.32132 19.9108 7.77849 23.094 11.025 26.2781C17.1317 32.2674 22.4417 38.2114 24.7602 42.643C25.3371 43.7458 25.7168 44.7331 25.8831 45.5877C26.0494 46.4422 25.9963 47.1308 25.7504 47.6693C25.2743 48.7113 23.9171 49.474 20.9956 49.5C16.5932 49.5392 12.1084 47.8566 7.83365 45.2654C3.56229 42.6763 -0.464494 39.2012 -3.94048 35.7077C-7.41476 32.216 -10.3276 28.7173 -12.3723 26.0905C-13.3943 24.7776 -14.1986 23.6835 -14.7469 22.9185C-14.9299 22.6632 -15.0843 22.4446 -15.2088 22.2668L0.995852 16.9538Z" fill="#F2BA1B" stroke="black"/>
</g>
</svg>
