<svg width="155" height="48" viewBox="0 0 155 48" fill="none" xmlns="http://www.w3.org/2000/svg">
<rect y="26.6665" width="5.33333" height="5.33333" fill="#E5E5E5"/>
<rect x="149.333" y="26.6665" width="5.33333" height="5.33333" fill="#E5E5E5"/>
<rect x="21.3333" y="26.6665" width="5.33333" height="5.33333" fill="#E5E5E5"/>
<rect x="10.6667" y="26.6665" width="5.33333" height="5.33333" fill="#E5E5E5"/>
<rect x="32" y="26.6665" width="5.33333" height="5.33333" fill="#E5E5E5"/>
<rect x="48" y="26.6665" width="5.33333" height="5.33333" fill="#E5E5E5"/>
<rect x="16" y="26.6665" width="5.33333" height="5.33333" fill="#E5E5E5"/>
<rect width="5.33333" height="5.33333" fill="#E5E5E5"/>
<rect x="149.333" width="5.33333" height="5.33333" fill="#E5E5E5"/>
<rect y="32" width="5.33333" height="5.33333" fill="#E5E5E5"/>
<rect x="149.333" y="32" width="5.33333" height="5.33333" fill="#E5E5E5"/>
<rect x="21.3333" width="5.33333" height="5.33333" fill="#E5E5E5"/>
<rect x="21.3333" y="32" width="5.33333" height="5.33333" fill="#E5E5E5"/>
<rect x="10.6667" width="5.33333" height="5.33333" fill="#E5E5E5"/>
<rect x="10.6667" y="32" width="5.33333" height="5.33333" fill="#E5E5E5"/>
<rect x="32" width="5.33333" height="5.33333" fill="#E5E5E5"/>
<rect x="32" y="32" width="5.33333" height="5.33333" fill="#E5E5E5"/>
<rect x="48" width="5.33333" height="5.33333" fill="#E5E5E5"/>
<rect x="48" y="32" width="5.33333" height="5.33333" fill="#E5E5E5"/>
<rect x="5.33325" width="5.33333" height="5.33333" fill="#E5E5E5"/>
<rect x="26.6667" width="5.33333" height="5.33333" fill="#E5E5E5"/>
<rect x="42.6667" width="5.33333" height="5.33333" fill="#E5E5E5"/>
<rect x="42.6667" y="32" width="5.33333" height="5.33333" fill="black"/>
<rect x="16" width="5.33333" height="5.33333" fill="#E5E5E5"/>
<rect x="16" y="32" width="5.33333" height="5.33333" fill="#E5E5E5"/>
<rect x="37.3333" width="5.33333" height="5.33333" fill="#E5E5E5"/>
<rect x="53.3333" width="5.33333" height="5.33333" fill="#E5E5E5"/>
<rect x="53.3333" y="32" width="5.33333" height="5.33333" fill="black"/>
<rect y="5.3335" width="5.33333" height="5.33333" fill="#E5E5E5"/>
<rect x="149.333" y="5.3335" width="5.33333" height="5.33333" fill="#E5E5E5"/>
<rect y="37.3335" width="5.33333" height="5.33333" fill="#E5E5E5"/>
<rect x="149.333" y="37.3335" width="5.33333" height="5.33333" fill="#E5E5E5"/>
<rect x="21.3333" y="5.3335" width="5.33333" height="5.33333" fill="#E5E5E5"/>
<rect x="21.3333" y="37.3335" width="5.33333" height="5.33333" fill="#E5E5E5"/>
<rect x="10.6667" y="37.3335" width="5.33333" height="5.33333" fill="#E5E5E5"/>
<rect x="32" y="5.3335" width="5.33333" height="5.33333" fill="#E5E5E5"/>
<rect x="32" y="37.3335" width="5.33333" height="5.33333" fill="#E5E5E5"/>
<rect x="48" y="5.3335" width="5.33333" height="5.33333" fill="#E5E5E5"/>
<rect x="48" y="37.3335" width="5.33333" height="5.33333" fill="#E5E5E5"/>
<rect x="42.6667" y="5.3335" width="5.33333" height="5.33333" fill="#E5E5E5"/>
<rect x="42.6667" y="37.3335" width="5.33333" height="5.33333" fill="#E5E5E5"/>
<rect x="16" y="37.3335" width="5.33333" height="5.33333" fill="#E5E5E5"/>
<rect x="53.3333" y="5.3335" width="5.33333" height="5.33333" fill="#E5E5E5"/>
<rect x="53.3333" y="37.3335" width="5.33333" height="5.33333" fill="#E5E5E5"/>
<rect y="10.6665" width="5.33333" height="5.33333" fill="#E5E5E5"/>
<rect x="149.333" y="10.6665" width="5.33333" height="5.33333" fill="#E5E5E5"/>
<rect y="42.6665" width="5.33333" height="5.33333" fill="#E5E5E5"/>
<rect x="149.333" y="42.6665" width="5.33333" height="5.33333" fill="#E5E5E5"/>
<rect x="21.3333" y="10.6665" width="5.33333" height="5.33333" fill="#E5E5E5"/>
<rect x="21.3333" y="42.6665" width="5.33333" height="5.33333" fill="#E5E5E5"/>
<rect x="10.6667" y="10.6665" width="5.33333" height="5.33333" fill="#E5E5E5"/>
<rect x="10.6667" y="42.6665" width="5.33333" height="5.33333" fill="#E5E5E5"/>
<rect x="32" y="10.6665" width="5.33333" height="5.33333" fill="#E5E5E5"/>
<rect x="32" y="42.6665" width="5.33333" height="5.33333" fill="#E5E5E5"/>
<rect x="48" y="10.6665" width="5.33333" height="5.33333" fill="#E5E5E5"/>
<rect x="48" y="42.6665" width="5.33333" height="5.33333" fill="#E5E5E5"/>
<rect x="5.33325" y="42.6665" width="5.33333" height="5.33333" fill="#E5E5E5"/>
<rect x="26.6667" y="10.6665" width="5.33333" height="5.33333" fill="#E5E5E5"/>
<rect x="26.6667" y="42.6665" width="5.33333" height="5.33333" fill="#E5E5E5"/>
<rect x="42.6667" y="10.6665" width="5.33333" height="5.33333" fill="black"/>
<rect x="42.6667" y="42.6665" width="5.33333" height="5.33333" fill="#E5E5E5"/>
<rect x="16" y="42.6665" width="5.33333" height="5.33333" fill="#E5E5E5"/>
<rect x="37.3333" y="42.6665" width="5.33333" height="5.33333" fill="#E5E5E5"/>
<rect x="53.3333" y="10.6665" width="5.33333" height="5.33333" fill="black"/>
<rect x="53.3333" y="42.6665" width="5.33333" height="5.33333" fill="#E5E5E5"/>
<rect y="16" width="5.33333" height="5.33333" fill="#E5E5E5"/>
<rect x="149.333" y="16" width="5.33333" height="5.33333" fill="#E5E5E5"/>
<rect x="21.3333" y="16" width="5.33333" height="5.33333" fill="#E5E5E5"/>
<rect x="10.6667" y="16" width="5.33333" height="5.33333" fill="#E5E5E5"/>
<rect x="32" y="16" width="5.33333" height="5.33333" fill="#E5E5E5"/>
<rect x="48" y="16" width="5.33333" height="5.33333" fill="#E5E5E5"/>
<rect y="21.3335" width="5.33333" height="5.33333" fill="#E5E5E5"/>
<rect x="149.333" y="21.3335" width="5.33333" height="5.33333" fill="#E5E5E5"/>
<rect x="21.3333" y="21.3335" width="5.33333" height="5.33333" fill="#E5E5E5"/>
<rect x="32" y="21.3335" width="5.33333" height="5.33333" fill="#E5E5E5"/>
<rect x="37.3333" y="21.3335" width="5.33333" height="5.33333" fill="#E5E5E5"/>
<rect x="90.6667" y="26.6665" width="5.33333" height="5.33333" fill="#E5E5E5"/>
<rect x="106.667" y="26.6665" width="5.33333" height="5.33333" fill="#E5E5E5"/>
<rect x="138.667" y="26.6665" width="5.33333" height="5.33333" fill="#E5E5E5"/>
<rect x="64" y="26.6665" width="5.33333" height="5.33333" fill="#E5E5E5"/>
<rect x="85.3333" y="26.6665" width="5.33333" height="5.33333" fill="#E5E5E5"/>
<rect x="117.333" y="26.6665" width="5.33333" height="5.33333" fill="#E5E5E5"/>
<rect x="74.6667" y="26.6665" width="5.33333" height="5.33333" fill="#E5E5E5"/>
<rect x="96" y="26.6665" width="5.33333" height="5.33333" fill="#E5E5E5"/>
<rect x="128" y="26.6665" width="5.33333" height="5.33333" fill="#E5E5E5"/>
<rect x="112" y="26.6665" width="5.33333" height="5.33333" fill="#E5E5E5"/>
<rect x="58.6667" width="5.33333" height="5.33333" fill="#E5E5E5"/>
<rect x="80" width="5.33333" height="5.33333" fill="#E5E5E5"/>
<rect x="69.3333" width="5.33333" height="5.33333" fill="#E5E5E5"/>
<rect x="90.6667" width="5.33333" height="5.33333" fill="#E5E5E5"/>
<rect x="122.667" width="5.33333" height="5.33333" fill="#E5E5E5"/>
<rect x="90.6667" y="32" width="5.33333" height="5.33333" fill="#E5E5E5"/>
<rect x="106.667" width="5.33333" height="5.33333" fill="#E5E5E5"/>
<rect x="138.667" width="5.33333" height="5.33333" fill="#E5E5E5"/>
<rect x="106.667" y="32" width="5.33333" height="5.33333" fill="#E5E5E5"/>
<rect x="138.667" y="32" width="5.33333" height="5.33333" fill="#E5E5E5"/>
<rect x="64" width="5.33333" height="5.33333" fill="#E5E5E5"/>
<rect x="64" y="32" width="5.33333" height="5.33333" fill="#E5E5E5"/>
<rect x="85.3333" width="5.33333" height="5.33333" fill="#E5E5E5"/>
<rect x="117.333" width="5.33333" height="5.33333" fill="#E5E5E5"/>
<rect x="85.3333" y="32" width="5.33333" height="5.33333" fill="#E5E5E5"/>
<rect x="117.333" y="32" width="5.33333" height="5.33333" fill="#E5E5E5"/>
<rect x="101.333" width="5.33333" height="5.33333" fill="#E5E5E5"/>
<rect x="133.333" width="5.33333" height="5.33333" fill="#E5E5E5"/>
<rect x="74.6667" width="5.33333" height="5.33333" fill="#E5E5E5"/>
<rect x="74.6667" y="32" width="5.33333" height="5.33333" fill="#E5E5E5"/>
<rect x="96" width="5.33333" height="5.33333" fill="#E5E5E5"/>
<rect x="128" width="5.33333" height="5.33333" fill="#E5E5E5"/>
<rect x="96" y="32" width="5.33333" height="5.33333" fill="#E5E5E5"/>
<rect x="128" y="32" width="5.33333" height="5.33333" fill="#E5E5E5"/>
<rect x="112" width="5.33333" height="5.33333" fill="#E5E5E5"/>
<rect x="144" width="5.33333" height="5.33333" fill="#E5E5E5"/>
<rect x="112" y="32" width="5.33333" height="5.33333" fill="#E5E5E5"/>
<rect x="106.667" y="5.3335" width="5.33333" height="5.33333" fill="#E5E5E5"/>
<rect x="106.667" y="37.3335" width="5.33333" height="5.33333" fill="#E5E5E5"/>
<rect x="64" y="5.3335" width="5.33333" height="5.33333" fill="#E5E5E5"/>
<rect x="64" y="37.3335" width="5.33333" height="5.33333" fill="#E5E5E5"/>
<rect x="85.3333" y="5.3335" width="5.33333" height="5.33333" fill="#E5E5E5"/>
<rect x="85.3333" y="37.3335" width="5.33333" height="5.33333" fill="#E5E5E5"/>
<rect x="74.6667" y="37.3335" width="5.33333" height="5.33333" fill="#E5E5E5"/>
<rect x="128" y="5.3335" width="5.33333" height="5.33333" fill="#E5E5E5"/>
<rect x="128" y="37.3335" width="5.33333" height="5.33333" fill="#E5E5E5"/>
<rect x="58.6667" y="42.6665" width="5.33333" height="5.33333" fill="#E5E5E5"/>
<rect x="80" y="42.6665" width="5.33333" height="5.33333" fill="#E5E5E5"/>
<rect x="69.3333" y="42.6665" width="5.33333" height="5.33333" fill="#E5E5E5"/>
<rect x="122.667" y="10.6665" width="5.33333" height="5.33333" fill="#E5E5E5"/>
<rect x="90.6667" y="42.6665" width="5.33333" height="5.33333" fill="#E5E5E5"/>
<rect x="122.667" y="42.6665" width="5.33333" height="5.33333" fill="#E5E5E5"/>
<rect x="106.667" y="10.6665" width="5.33333" height="5.33333" fill="#E5E5E5"/>
<rect x="138.667" y="10.6665" width="5.33333" height="5.33333" fill="#E5E5E5"/>
<rect x="106.667" y="42.6665" width="5.33333" height="5.33333" fill="#E5E5E5"/>
<rect x="138.667" y="42.6665" width="5.33333" height="5.33333" fill="#E5E5E5"/>
<rect x="64" y="10.6665" width="5.33333" height="5.33333" fill="#E5E5E5"/>
<rect x="64" y="42.6665" width="5.33333" height="5.33333" fill="#E5E5E5"/>
<rect x="85.3333" y="10.6665" width="5.33333" height="5.33333" fill="#E5E5E5"/>
<rect x="117.333" y="10.6665" width="5.33333" height="5.33333" fill="#E5E5E5"/>
<rect x="85.3333" y="42.6665" width="5.33333" height="5.33333" fill="#E5E5E5"/>
<rect x="117.333" y="42.6665" width="5.33333" height="5.33333" fill="#E5E5E5"/>
<rect x="101.333" y="10.6665" width="5.33333" height="5.33333" fill="#E5E5E5"/>
<rect x="101.333" y="42.6665" width="5.33333" height="5.33333" fill="#E5E5E5"/>
<rect x="133.333" y="42.6665" width="5.33333" height="5.33333" fill="#E5E5E5"/>
<rect x="74.6667" y="10.6665" width="5.33333" height="5.33333" fill="#E5E5E5"/>
<rect x="74.6667" y="42.6665" width="5.33333" height="5.33333" fill="#E5E5E5"/>
<rect x="96" y="10.6665" width="5.33333" height="5.33333" fill="#E5E5E5"/>
<rect x="128" y="10.6665" width="5.33333" height="5.33333" fill="#E5E5E5"/>
<rect x="96" y="42.6665" width="5.33333" height="5.33333" fill="#E5E5E5"/>
<rect x="128" y="42.6665" width="5.33333" height="5.33333" fill="#E5E5E5"/>
<rect x="112" y="42.6665" width="5.33333" height="5.33333" fill="#E5E5E5"/>
<rect x="144" y="42.6665" width="5.33333" height="5.33333" fill="#E5E5E5"/>
<rect x="122.667" y="16" width="5.33333" height="5.33333" fill="#E5E5E5"/>
<rect x="106.667" y="16" width="5.33333" height="5.33333" fill="#E5E5E5"/>
<rect x="138.667" y="16" width="5.33333" height="5.33333" fill="#E5E5E5"/>
<rect x="64" y="16" width="5.33333" height="5.33333" fill="#E5E5E5"/>
<rect x="85.3333" y="16" width="5.33333" height="5.33333" fill="#E5E5E5"/>
<rect x="117.333" y="16" width="5.33333" height="5.33333" fill="#E5E5E5"/>
<rect x="101.333" y="16" width="5.33333" height="5.33333" fill="#E5E5E5"/>
<rect x="74.6667" y="16" width="5.33333" height="5.33333" fill="#E5E5E5"/>
<rect x="96" y="16" width="5.33333" height="5.33333" fill="#E5E5E5"/>
<rect x="128" y="16" width="5.33333" height="5.33333" fill="#E5E5E5"/>
<rect x="58.6667" y="21.3335" width="5.33333" height="5.33333" fill="#E5E5E5"/>
<rect x="106.667" y="21.3335" width="5.33333" height="5.33333" fill="#E5E5E5"/>
<rect x="138.667" y="21.3335" width="5.33333" height="5.33333" fill="#E5E5E5"/>
<rect x="64" y="21.3335" width="5.33333" height="5.33333" fill="#E5E5E5"/>
<rect x="85.3333" y="21.3335" width="5.33333" height="5.33333" fill="#E5E5E5"/>
<rect x="128" y="21.3335" width="5.33333" height="5.33333" fill="#E5E5E5"/>
<rect x="26.6667" y="26.6665" width="5.33333" height="5.33333" fill="black"/>
<rect x="26.6667" y="32" width="5.33333" height="5.33333" fill="black"/>
<rect x="26.6667" y="5.33301" width="5.33333" height="5.33333" fill="black"/>
<rect x="26.6667" y="37.333" width="5.33333" height="5.33333" fill="black"/>
<rect x="26.6667" y="16" width="5.33333" height="5.33333" fill="black"/>
<rect x="26.6667" y="21.333" width="5.33333" height="5.33333" fill="black"/>
<rect x="5.3335" y="26.6665" width="5.33333" height="5.33333" fill="black"/>
<rect x="5.3335" y="32" width="5.33333" height="5.33333" fill="black"/>
<rect x="10.6667" y="5.33301" width="5.33333" height="5.33333" fill="black"/>
<rect x="5.3335" y="5.33301" width="5.33333" height="5.33333" fill="black"/>
<rect x="5.3335" y="37.333" width="5.33333" height="5.33333" fill="black"/>
<rect x="16.0002" y="5.33301" width="5.33333" height="5.33333" fill="black"/>
<rect x="5.3335" y="10.6665" width="5.33333" height="5.33333" fill="black"/>
<rect x="16.0002" y="10.6665" width="5.33333" height="5.33333" fill="black"/>
<rect x="5.3335" y="16" width="5.33333" height="5.33333" fill="black"/>
<rect x="16.0002" y="16" width="5.33333" height="5.33333" fill="black"/>
<rect x="10.6667" y="21.333" width="5.33333" height="5.33333" fill="black"/>
<rect x="5.3335" y="21.333" width="5.33333" height="5.33333" fill="black"/>
<rect x="16.0002" y="21.333" width="5.33333" height="5.33333" fill="black"/>
<rect x="80.0002" y="26.6665" width="5.33333" height="5.33333" fill="black"/>
<rect x="69.3335" y="26.6665" width="5.33333" height="5.33333" fill="black"/>
<rect x="122.667" y="26.6665" width="5.33333" height="5.33333" fill="black"/>
<rect x="101.333" y="26.6665" width="5.33333" height="5.33333" fill="black"/>
<rect x="133.333" y="26.6665" width="5.33333" height="5.33333" fill="black"/>
<rect x="144" y="26.6665" width="5.33333" height="5.33333" fill="black"/>
<rect x="80.0002" y="32" width="5.33333" height="5.33333" fill="black"/>
<rect x="69.3335" y="32" width="5.33333" height="5.33333" fill="black"/>
<rect x="122.667" y="32" width="5.33333" height="5.33333" fill="black"/>
<rect x="101.333" y="32" width="5.33333" height="5.33333" fill="black"/>
<rect x="133.333" y="32" width="5.33333" height="5.33333" fill="black"/>
<rect x="144" y="32" width="5.33333" height="5.33333" fill="black"/>
<rect x="80.0002" y="5.33301" width="5.33333" height="5.33333" fill="black"/>
<rect x="80.0002" y="37.333" width="5.33333" height="5.33333" fill="black"/>
<rect x="69.3335" y="5.33301" width="5.33333" height="5.33333" fill="black"/>
<rect x="69.3335" y="37.333" width="5.33333" height="5.33333" fill="black"/>
<rect x="90.6667" y="5.33301" width="5.33333" height="5.33333" fill="black"/>
<rect x="122.667" y="5.33301" width="5.33333" height="5.33333" fill="black"/>
<rect x="90.6667" y="37.333" width="5.33333" height="5.33333" fill="black"/>
<rect x="122.667" y="37.333" width="5.33333" height="5.33333" fill="black"/>
<rect x="138.667" y="5.33301" width="5.33333" height="5.33333" fill="black"/>
<rect x="138.667" y="37.333" width="5.33333" height="5.33333" fill="black"/>
<rect x="117.333" y="5.33301" width="5.33333" height="5.33333" fill="black"/>
<rect x="117.333" y="37.333" width="5.33333" height="5.33333" fill="black"/>
<rect x="101.333" y="5.33301" width="5.33333" height="5.33333" fill="black"/>
<rect x="133.333" y="5.33301" width="5.33333" height="5.33333" fill="black"/>
<rect x="101.333" y="37.333" width="5.33333" height="5.33333" fill="black"/>
<rect x="133.333" y="37.333" width="5.33333" height="5.33333" fill="black"/>
<rect x="74.6667" y="5.33301" width="5.33333" height="5.33333" fill="black"/>
<rect x="96.0002" y="5.33301" width="5.33333" height="5.33333" fill="black"/>
<rect x="96.0002" y="37.333" width="5.33333" height="5.33333" fill="black"/>
<rect x="112" y="5.33301" width="5.33333" height="5.33333" fill="black"/>
<rect x="144" y="5.33301" width="5.33333" height="5.33333" fill="black"/>
<rect x="112" y="37.333" width="5.33333" height="5.33333" fill="black"/>
<rect x="144" y="37.333" width="5.33333" height="5.33333" fill="black"/>
<rect x="80.0002" y="10.6665" width="5.33333" height="5.33333" fill="black"/>
<rect x="69.3335" y="10.6665" width="5.33333" height="5.33333" fill="black"/>
<rect x="90.6667" y="10.6665" width="5.33333" height="5.33333" fill="black"/>
<rect x="133.333" y="10.6665" width="5.33333" height="5.33333" fill="black"/>
<rect x="112" y="10.6665" width="5.33333" height="5.33333" fill="black"/>
<rect x="144" y="10.6665" width="5.33333" height="5.33333" fill="black"/>
<rect x="42.6667" y="26.6665" width="5.33333" height="5.33333" fill="black"/>
<rect x="37.3335" y="26.6665" width="5.33333" height="5.33333" fill="#E5E5E5"/>
<rect x="53.3335" y="26.6665" width="5.33333" height="5.33333" fill="black"/>
<rect x="37.3335" y="31.9995" width="5.33333" height="5.33333" fill="black"/>
<rect x="37.3335" y="5.33301" width="5.33333" height="5.33333" fill="black"/>
<rect x="37.3335" y="37.333" width="5.33333" height="5.33333" fill="black"/>
<rect x="37.3335" y="10.6665" width="5.33333" height="5.33333" fill="black"/>
<rect x="42.6667" y="15.9995" width="5.33333" height="5.33333" fill="black"/>
<rect x="37.3335" y="15.9995" width="5.33333" height="5.33333" fill="#E5E5E5"/>
<rect x="53.3335" y="15.9995" width="5.33333" height="5.33333" fill="black"/>
<rect x="48.0002" y="21.333" width="5.33333" height="5.33333" fill="black"/>
<rect x="42.6667" y="21.333" width="5.33333" height="5.33333" fill="black"/>
<rect x="53.3335" y="21.333" width="5.33333" height="5.33333" fill="black"/>
<rect x="58.6667" y="26.6665" width="5.33333" height="5.33333" fill="#E5E5E5"/>
<rect x="58.6667" y="31.9995" width="5.33333" height="5.33333" fill="black"/>
<rect x="58.6667" y="5.33301" width="5.33333" height="5.33333" fill="black"/>
<rect x="58.6667" y="37.333" width="5.33333" height="5.33333" fill="black"/>
<rect x="58.6667" y="10.6665" width="5.33333" height="5.33333" fill="black"/>
<rect x="58.6667" y="15.9995" width="5.33333" height="5.33333" fill="#E5E5E5"/>
<rect x="80.0002" y="16" width="5.33333" height="5.33333" fill="black"/>
<rect x="69.3335" y="16" width="5.33333" height="5.33333" fill="black"/>
<rect x="90.6667" y="16" width="5.33333" height="5.33333" fill="black"/>
<rect x="133.333" y="16" width="5.33333" height="5.33333" fill="black"/>
<rect x="112" y="16" width="5.33333" height="5.33333" fill="black"/>
<rect x="144" y="16" width="5.33333" height="5.33333" fill="black"/>
<rect x="80.0002" y="21.333" width="5.33333" height="5.33333" fill="black"/>
<rect x="69.3335" y="21.333" width="5.33333" height="5.33333" fill="black"/>
<rect x="90.6667" y="21.333" width="5.33333" height="5.33333" fill="black"/>
<rect x="122.667" y="21.333" width="5.33333" height="5.33333" fill="black"/>
<rect x="117.333" y="21.333" width="5.33333" height="5.33333" fill="black"/>
<rect x="101.333" y="21.333" width="5.33333" height="5.33333" fill="black"/>
<rect x="133.333" y="21.333" width="5.33333" height="5.33333" fill="black"/>
<rect x="74.6667" y="21.333" width="5.33333" height="5.33333" fill="black"/>
<rect x="96.0002" y="21.333" width="5.33333" height="5.33333" fill="black"/>
<rect x="112" y="21.333" width="5.33333" height="5.33333" fill="black"/>
<rect x="144" y="21.333" width="5.33333" height="5.33333" fill="black"/>
</svg>
